<?xml version="1.0" encoding="UTF-8"?><svg version="1.1" width="120px" height="120px" viewBox="0 0 120.0 120.0" xmlns="http://www.w3.org/2000/svg" xmlns:xlink="http://www.w3.org/1999/xlink"><defs><clipPath id="i0"><path d="M120,0 L120,120 L0,120 L0,0 L120,0 Z"></path></clipPath><clipPath id="i1"><path d="M83.3333333,0 C129.357062,0 166.666667,6.90046213 166.666667,23.6363636 C166.666667,40.3722651 129.357062,58.1060606 83.3333333,58.1060606 C37.3096042,58.1060606 0,40.3722651 0,23.6363636 C0,6.90046213 37.3096042,0 83.3333333,0 Z"></path></clipPath><clipPath id="i2"><path d="M73.3333333,0 C113.834215,0 146.666667,11.9390733 146.666667,26.6666667 C146.666667,41.39426 113.834215,53.3333333 73.3333333,53.3333333 C32.8324517,53.3333333 0,41.39426 0,26.6666667 C0,11.9390733 32.8324517,0 73.3333333,0 Z"></path></clipPath><clipPath id="i3"><path d="M15.4423335,0 C23.9708989,0 30.8846671,6.89477966 30.8846671,15.3999214 L30.8846671,46.1997642 C30.8846671,54.7049059 23.9708989,61.5996856 15.4423335,61.5996856 C6.91376822,61.5996856 0,54.7049059 0,46.1997642 L0,15.3999214 C0,6.89477966 6.91376822,0 15.4423335,0 Z"></path></clipPath><clipPath id="i4"><path d="M26.3617123,4.51053255 L57.2999521,35.363801 C63.3305585,41.3778444 63.3305585,51.1285353 57.2999521,57.1425787 C51.2693458,63.1566221 41.491801,63.1566221 35.4611946,57.1425787 C33.0050849,54.6932146 31.1630026,52.8561916 29.9349478,51.6315096 C29.9258861,51.6224728 29.9123019,51.6088773 29.8941952,51.5907232 L30.0827597,50.6274025 L17.2962417,13.8733672 C14.4099686,10.9950212 0.131790806,19.6766947 0.00828213492,15.9057986 C-0.126269382,11.7977487 1.3786215,7.64622996 4.52295478,4.51053255 C10.5535611,-1.50351085 20.3311059,-1.50351085 26.3617123,4.51053255 Z"></path></clipPath><clipPath id="i5"><path d="M0.376074058,0 C0.456102169,0.239424945 0.523605416,0.441378495 0.578583798,0.60586065 L0.651657724,0.824480338 C0.694111242,0.951491099 0.724039896,1.04103047 0.741443686,1.09309844 L0.752,1.124 L0.744805431,1.13976857 L0.376074058,1.87520588 L0,1.12512353 L0.376074058,0 Z"></path></clipPath><clipPath id="i6"><path d="M26.3617123,4.51053255 L57.2999521,35.363801 C63.3305585,41.3778444 63.3305585,51.1285353 57.2999521,57.1425787 C51.2693458,63.1566221 41.491801,63.1566221 35.4611946,57.1425787 L34.7767509,56.4600148 L36.62911,50.6274025 L4.52295478,26.2893102 C-1.50765159,20.2752669 -1.50765159,10.5245759 4.52295478,4.51053255 C10.5535611,-1.50351085 20.3311059,-1.50351085 26.3617123,4.51053255 Z"></path></clipPath><clipPath id="i7"><path d="M25.9448164,4.10980342 L26.1546829,4.30783816 L26.3481195,4.49697709 C29.1426322,7.28381472 30.8710743,11.1337951 30.8710743,15.3863659 L30.8710743,46.1862087 C30.8710743,48.0876108 30.5255332,49.9085291 29.8936576,51.5899199 L4.52295478,26.2893102 C-1.50765159,20.2752669 -1.50765159,10.5245759 4.52295478,4.51053255 C10.4165019,-1.36682804 19.8886075,-1.50040442 25.9448164,4.10980342 Z"></path></clipPath><clipPath id="i8"><path d="M3.88030265,0 L34.1364518,30.1729652 C39.9446964,35.9652575 40.1588592,45.2237205 34.7789404,51.2716236 L4.52295478,21.0984745 C-1.2852309,15.3062409 -1.49944828,6.04790687 3.88030265,0 Z"></path></clipPath><clipPath id="i9"><path d="M1.61666543,0 L1.61666543,1.59098847 L0,1.59098847 L0,0 L1.61666543,0 Z"></path></clipPath><clipPath id="i10"><path d="M1.25740645,0 C1.95185285,0 2.51481289,0.554018733 2.51481289,1.23743547 C2.51481289,1.92085222 1.95185285,2.47487095 1.25740645,2.47487095 C0.562960042,2.47487095 0,1.92085222 0,1.23743547 C0,0.554018733 0.562960042,0 1.25740645,0 Z"></path></clipPath></defs><rect x="0px" y="0px" width="120px" height="120px" fill="#FFFFFF"></rect><g clip-path="url(#i0)"><g clip-path="url(#i0)"><polygon points="0,0 120,0 120,120 0,120 0,0" stroke="none" fill="#FFFFFF"></polygon><g transform="translate(-23.333333333333336 82.50000000000003)"><g clip-path="url(#i1)"><polygon points="23.3333333,0 143.333333,0 143.333333,37.5 23.3333333,37.5 23.3333333,0" stroke="none" fill="#69C0FF"></polygon></g></g><g transform="translate(-13.333333333333336 82.50000000000003)"><g clip-path="url(#i2)"><polygon points="13.3333333,0 133.333333,0 133.333333,37.5 13.3333333,37.5 13.3333333,0" stroke="none" fill="#0B5CBC"></polygon></g></g></g><g transform="translate(17.499999999999993 12.5)"><g transform=""><g clip-path="url(#i3)"><polygon points="0,0 30.8846671,0 30.8846671,61.5996856 0,61.5996856 0,0" stroke="none" fill="#69C0FF"></polygon></g></g><g transform="translate(0.01359279042367234 0.013555458026562661)"><g clip-path="url(#i4)"><polygon points="3.46944695e-18,8.8817842e-16 61.8229069,8.8817842e-16 61.8229069,61.6531112 3.46944695e-18,61.6531112 3.46944695e-18,8.8817842e-16" stroke="none" fill="#3A8AE1"></polygon></g></g><g transform="translate(28.9681302930952 50.64095799643797)"><g clip-path="url(#i5)"><polygon points="0,0 0.838861243,0 0.838861243,1.87520588 0,1.87520588 0,0" stroke="none" fill="#69C0FF"></polygon></g></g><g transform="translate(23.17709309762101 0.013555458025983569)"><g clip-path="url(#i6)"><polygon points="8.8817842e-16,0 61.8229069,0 61.8229069,61.6531112 8.8817842e-16,61.6531112 8.8817842e-16,0" stroke="none" fill="#3373C2"></polygon></g></g><g transform="translate(0.013592790423274437 0.013555458026569767)"><g clip-path="url(#i7)"><polygon points="-8.8817842e-16,-8.8817842e-16 30.8710743,-8.8817842e-16 30.8710743,51.5899199 -8.8817842e-16,51.5899199 -8.8817842e-16,-8.8817842e-16" stroke="none" fill="#1B7CE1"></polygon></g></g><g transform="translate(23.177093097621018 5.2043911787181685)"><g clip-path="url(#i8)"><polygon points="0,0 38.6594066,0 38.6594066,51.2716236 0,51.2716236 0,0" stroke="none" fill="#0B5CBC"></polygon></g></g></g><g transform="translate(32.49999999999987 88.33333333333334)"><g transform="translate(1.3632736623545147 1.1209871710348978)"><path d="M9.85441801,7.57212788 C12.6873413,4.29456637 13.9158273,2.03518195 13.539876,0.793974624 C12.9759489,-1.06783636 9.00191583,0.218389621 5.03901071,5.99820313 C1.07610558,11.7780166 -2.44030419,20.4368127 2.22576102,19.6112939 C5.33647116,19.0609479 8.42977497,16.4637282 11.5056724,11.8196346 C8.42088842,16.1239555 6.78260119,18.9608098 6.59081074,20.3301977 C6.30312506,22.3842794 6.75679378,24.086489 7.30653201,24.7123462" stroke="#FFFFFF" stroke-width="1.792" fill="none" stroke-linecap="round" stroke-miterlimit="10"></path></g><g transform="translate(6.4022843699505625 12.439478726499)"><path d="M0,3.05343804 C1.2433335,2.23334264 2.63991188,1.5614238 4.18973512,1.03768153 C5.73955837,0.513939252 7.19862496,0.168045411 8.56693489,0" stroke="#FFFFFF" stroke-width="1.792" fill="none" stroke-linecap="round" stroke-miterlimit="10"></path></g><g transform="translate(11.21769167079037 1.1209871710348978)"><path d="M0,7.57212788 C11.1054244,2.6961418 20.1439716,0.172099173 27.1156417,0" stroke="#FFFFFF" stroke-width="1.792" fill="none" stroke-linecap="round" stroke-miterlimit="10"></path></g><g transform="translate(18.390185304633228 4.1162699106639575)"><path d="M6.49488375,0 C3.16379324,7.26947512 0.998831988,12.8789785 0,16.82851" stroke="#FFFFFF" stroke-width="1.792" fill="none" stroke-linecap="round" stroke-miterlimit="10"></path></g><g transform="translate(26.17481731287511 1.379135931218613)"><path d="M0,18.1314026 C0.743248855,16.1836702 2.04654797,12.7846202 3.6097119,9.97172896 C5.41813602,6.71749555 7.51357797,4.12813889 8.51568531,3.55651839 C9.76122394,2.8460402 10.0186879,3.35027753 9.28807706,5.06923038 C7.42109253,10.9088961 6.52641183,14.2403794 6.60403498,15.0636801 C6.72046969,16.2986313 7.31832144,15.6346624 7.77132609,15.1826493 C8.22433075,14.7306361 9.68279733,11.5340482 10.4005253,10.1868372 C10.9280145,9.19671387 11.3697985,8.43550704 11.7258774,7.90321672 C14.7126085,3.4384526 16.8409899,1.52822408 18.2664659,0.629243246 C21.3073394,-1.28849306 19.2967673,1.22425182 16.8422577,7.52481287 C14.3877482,13.8253739 13.5589764,17.0922734 12.7687983,20.900589" stroke="#FFFFFF" stroke-width="1.792" fill="none" stroke-linecap="round" stroke-miterlimit="10"></path><g transform="translate(8.29687276388275 1.4154982392547666)"><path d="M0,12.9427486 C0,12.9427486 6.78206889,1.2399264 10.6104302,0" stroke="#FFFFFF" stroke-width="1.792" fill="none" stroke-miterlimit="10"></path></g><g transform="translate(0.6387511339270686 4.952846872295886)"><path d="M0,11.6419757 C0.925431454,9.453201 1.58013772,8.04016107 1.96411881,7.40285587 C5.23094847,1.98079826 6.94428602,0.570437176 8.0368883,0" stroke="#FFFFFF" stroke-width="1.792" fill="none" stroke-miterlimit="10"></path></g><g transform="translate(12.768798340792959 1.9969812678385193)"><path d="M5.33086584,0 C3.98124309,3.19020501 3.14858807,5.36988291 2.83290078,6.5390337 C1.31008412,12.1787993 0.259581805,17.4824428 0,18.9036077" stroke="#FFFFFF" stroke-width="1.792" fill="none" stroke-miterlimit="10"></path></g></g><g transform="translate(49.461612392645605 0.0)"><g transform="translate(3.549267668467641 0.0)"><path d="M1.10460897,0 C0.36820299,2.34988499 0,5.24759001 0,8.69311505" stroke="#FFFFFF" stroke-width="1.792" fill="none" stroke-linecap="round" stroke-miterlimit="10"></path></g><g transform="translate(0.0 4.034560574926581)"><path d="M0,0.0817093357 C3.71124289,0.0995197689 6.39070543,0.0995197689 8.03838761,0.0817093357" stroke="#FFFFFF" stroke-width="1.792" fill="none" stroke-linecap="round" stroke-miterlimit="10"></path></g></g><g transform="translate(0.0 7.858306493133522)"><path d="M5.48527241,0 C1.40187916,5.89637191 -0.401668279,10.1322296 0.0746300929,12.7075732 C0.789077651,16.5705885 6.58191386,13.3278214 7.9540844,10.7375752" stroke="#FFFFFF" stroke-width="1.792" fill="none" stroke-miterlimit="10"></path></g><g transform="translate(0.6541406101928259 20.39442106281289)"><g clip-path="url(#i9)"><polygon points="0,0 1.61666543,0 1.61666543,1.59098847 0,1.59098847 0,0" stroke="none" fill="#FFFFFF"></polygon></g></g><g transform="translate(6.810451237566153 13.147302640255443)"><path d="M0,2.9333335 C1.35506796,1.72684157 2.47026143,0.92510455 3.34558039,0.528122448 C4.22089936,0.131140346 4.77806837,-0.0420374234 5.01708743,0.00858913962" stroke="#FFFFFF" stroke-width="1.792" fill="none" stroke-linecap="round" stroke-miterlimit="10"></path></g><g transform="translate(5.3245074149958755 14.560796682849368)"><g clip-path="url(#i10)"><polygon points="0,0 2.51481289,0 2.51481289,2.47487095 0,2.47487095 0,0" stroke="none" fill="#FFFFFF"></polygon></g></g><g transform="translate(13.328283671402223 2.585220742780833)"><path d="M0,3.9899019 C2.94281514,2.69204939 7.98526653,1.36208209 15.1273542,0" stroke="#FFFFFF" stroke-width="1.792" fill="none" stroke-miterlimit="10"></path></g><g transform="translate(0.9696593202625072 2.693139635716461)"><path d="M9.38387923,0 C5.42565002,3.05914459 2.29769028,7.73550285 0,14.0290748" stroke="#FFFFFF" stroke-width="1.792" fill="none" stroke-miterlimit="10"></path></g><g transform="translate(7.446307346478246 18.383845687527007)"><path d="M0.719939116,0 C-0.336282617,2.59725284 -0.23031821,4.98306521 1.03783234,7.15743712" stroke="#FFFFFF" stroke-width="1.792" fill="none" stroke-miterlimit="10"></path></g><g transform="translate(19.569057505453134 4.116269910663958)"><path d="M4.52154777,0 C2.88622904,4.13797692 1.37904645,8.44444283 0,12.9193977" stroke="#FFFFFF" stroke-width="1.792" fill="none" stroke-miterlimit="10"></path></g><g transform="translate(10.594858719123685 12.439478726499)"><path d="M0,3.71837389 C1.32898756,1.76706991 2.78710774,0.527611952 4.37436054,0" stroke="#FFFFFF" stroke-width="1.792" fill="none" stroke-miterlimit="10"></path></g></g></g></svg>